<svg clip-rule="evenodd" fill-rule="evenodd" height="90mm" image-rendering="optimizeQuality" shape-rendering="geometricPrecision" text-rendering="geometricPrecision" viewBox="0 0 160 90" width="160mm" xmlns="http://www.w3.org/2000/svg"><path d="m126.784 57.9854 1.0296-.7018v1.4378zm1.1716-.9612-1.3876-1.0069c-.0342-.0248-.0791-.0224-.1105.0026l-1.4112 1.0029c-.0277.0166-.0464.0475-.0464.0828v1.7987c0 .0528.0417.0956.0931.0956h2.8137c.0515 0 .0932-.0428.0932-.0956v-1.7987c0-.0344-.0177-.0645-.0443-.0814zm-2.7695.2591 1.0377.7049-1.0377.7345zm.2055 1.5254 1.0472-.741c.0025-.0017.005-.0034.0074-.0053l.0603-.0426 1.1037.7889zm.9972-.9372-1.1301-.7677 1.2552-.8921 1.2284.8915-1.1223.7649-.06-.0428c-.0346-.0247-.0798-.022-.1111.0037z" fill="none" stroke="#000" stroke-width=".1"/></svg>