<?xml version="1.0" encoding="UTF-8"?>
<!DOCTYPE svg PUBLIC "-//W3C//DTD SVG 1.1//EN" "http://www.w3.org/Graphics/SVG/1.1/DTD/svg11.dtd">
<!-- Creator: CorelDRAW -->
<svg xmlns="http://www.w3.org/2000/svg" xml:space="preserve" width="160mm" height="90mm" style="shape-rendering:geometricPrecision; text-rendering:geometricPrecision; image-rendering:optimizeQuality; fill-rule:evenodd; clip-rule:evenodd"
viewBox="0 0 160 90"
 xmlns:xlink="http://www.w3.org/1999/xlink">
 <defs>
  <style type="text/css">
   <![CDATA[
    .str0 {stroke:black;stroke-width:0.1}
    .fil0 {fill:none}
   ]]>
  </style>
 </defs>
 <g id="Слой_x0020_1">
  <metadata id="CorelCorpID_0Corel-Layer"/>
  <path class="fil0 str0" d="M134.615 55.9999l-2.2298 0c-0.2118,0 -0.3851,0.1733 -0.3851,0.3851l0 2.2299c0,0.2118 0.1733,0.385 0.3851,0.385l2.2298 0c0.2118,0 0.3851,-0.1732 0.3851,-0.385l0 -2.2299c0,-0.2118 -0.1733,-0.3851 -0.3851,-0.3851zm-1.8003 0.3334l0 0c0.0743,0 0.1351,0.0607 0.1351,0.135l0 0.3233c0,0.0743 -0.0608,0.135 -0.1351,0.135l-0.3391 0c-0.0742,0 -0.135,-0.0607 -0.135,-0.135l0 -0.3233c0,-0.0743 0.0608,-0.135 0.135,-0.135l0.3391 0zm-0.4755 0.9353l0 0 0.264 0c-0.0249,0.0816 -0.0384,0.168 -0.0384,0.2574 0,0.499 0.4175,0.9035 0.9324,0.9035 0.515,0 0.9325,-0.4045 0.9325,-0.9035 0,-0.0894 -0.0135,-0.1758 -0.0385,-0.2574l0.2756 0 0 1.2673c0,0.0655 -0.0537,0.1192 -0.1193,0.1192l-2.0891 0c-0.0656,0 -0.1192,-0.0537 -0.1192,-0.1192l0 -1.2673zm1.158 -0.359l0 0c0.3328,0 0.6025,0.2614 0.6025,0.5838 0,0.3225 -0.2697,0.5838 -0.6025,0.5838 -0.3327,0 -0.6025,-0.2613 -0.6025,-0.5838 0,-0.3224 0.2698,-0.5838 0.6025,-0.5838z"/>
 </g>
</svg>
